<?xml version="1.0" encoding="UTF-8"?>
<svg version="1.1" xmlns="http://www.w3.org/2000/svg" width="400" height="98">
<path d="M0 0 C4.29 0 8.58 0 13 0 C13 19.47 13 38.94 13 59 C8.71 59 4.42 59 0 59 C-0.33 58.34 -0.66 57.68 -1 57 C-1.598125 57.495 -2.19625 57.99 -2.8125 58.5 C-7.93746968 60.91175044 -13.7431704 61.16528766 -19.12890625 59.23828125 C-22.584666 57.34992873 -25.38821342 54.92520097 -28 52 C-28.70125 52.763125 -29.4025 53.52625 -30.125 54.3125 C-36.43114658 60.20737615 -42.01027556 60.53164112 -50.359375 60.3515625 C-57.74940645 59.63793285 -62.17716383 56.42569069 -67 51 C-67.20625 51.5775 -67.4125 52.155 -67.625 52.75 C-70.01964374 56.66850794 -73.72751322 58.57583774 -78 60 C-80.43448818 60.14703064 -82.8737477 60.22105339 -85.3125 60.25 C-86.60800781 60.27578125 -87.90351563 60.3015625 -89.23828125 60.328125 C-94.16236665 59.89860976 -97.50090257 58.49909743 -101 55 C-101.33 56.32 -101.66 57.64 -102 59 C-106.62 59 -111.24 59 -116 59 C-116.13277344 57.31390625 -116.26554687 55.6278125 -116.40234375 53.890625 C-116.58055375 51.6770692 -116.7589488 49.4635283 -116.9375 47.25 C-117.06801758 45.58324219 -117.06801758 45.58324219 -117.20117188 43.8828125 C-117.33168945 42.27792969 -117.33168945 42.27792969 -117.46484375 40.640625 C-117.543396 39.65610352 -117.62194824 38.67158203 -117.70288086 37.65722656 C-117.96828057 34.7493973 -117.96828057 34.7493973 -119 31 C-122.3 40.24 -125.6 49.48 -129 59 C-131.97 59 -134.94 59 -138 59 C-141.3 49.76 -144.6 40.52 -148 31 C-149.11947767 40.32898059 -150.2087439 49.63680281 -151 59 C-155.62 59 -160.24 59 -165 59 C-164.46920298 47.21630617 -163.56598021 35.49503256 -162.5 23.75 C-162.43428802 23.0182254 -162.36857605 22.28645081 -162.3008728 21.53250122 C-162.1096773 19.41202054 -161.91491803 17.29190091 -161.71875 15.171875 C-161.54762695 13.3170752 -161.54762695 13.3170752 -161.37304688 11.42480469 C-161.02926895 8.26870738 -160.52192817 5.13156901 -160 2 C-155.38 2 -150.76 2 -146 2 C-142.7629299 8.18251226 -140.18415129 14.46385301 -137.75 21 C-137.38648438 21.96550781 -137.02296875 22.93101563 -136.6484375 23.92578125 C-135.76177374 26.28244018 -134.87905628 28.64049524 -134 31 C-131.54422413 28.54422413 -130.87176234 26.40453387 -129.65234375 23.15234375 C-129.21212891 21.99025391 -128.77191406 20.82816406 -128.31835938 19.63085938 C-127.86267578 18.41205078 -127.40699219 17.19324219 -126.9375 15.9375 C-126.03227622 13.52907152 -125.1248455 11.12147098 -124.21484375 8.71484375 C-123.81386475 7.64355225 -123.41288574 6.57226074 -122.99975586 5.46850586 C-122 3 -122 3 -121 2 C-118.64686445 1.92728259 -116.29166332 1.91629132 -113.9375 1.9375 C-112.64714844 1.94652344 -111.35679688 1.95554687 -110.02734375 1.96484375 C-109.02832031 1.97644531 -108.02929688 1.98804687 -107 2 C-105.83834968 10.9886923 -104.72752816 19.96333446 -104 29 C-101.76273086 29.20993399 -101.76273086 29.20993399 -99.6875 27.125 C-93.15253326 21.957817 -86.02582928 22.24814466 -78 23 C-73.61675471 24.34410694 -70.02410099 26.51908617 -67 30 C-67 30.66 -67 31.32 -67 32 C-66.39671875 31.51789062 -65.7934375 31.03578125 -65.171875 30.5390625 C-64.37265625 29.90742187 -63.5734375 29.27578125 -62.75 28.625 C-61.96109375 27.99851562 -61.1721875 27.37203125 -60.359375 26.7265625 C-53.76051559 21.89759585 -46.90633405 22.16862944 -39 23 C-35.85802052 24.21745852 -33.53657093 25.8090287 -31 28 C-30.175 28.598125 -29.35 29.19625 -28.5 29.8125 C-28.005 30.204375 -27.51 30.59625 -27 31 C-26.278125 30.236875 -25.55625 29.47375 -24.8125 28.6875 C-20.3177274 24.39249507 -17.22177506 22.58421861 -10.9375 22.6875 C-9.91527344 22.69136719 -8.89304688 22.69523437 -7.83984375 22.69921875 C-5 23 -5 23 -1 25 C-0.67 16.75 -0.34 8.5 0 0 Z M-91.5 36.0625 C-93.45640324 39.89378967 -93.13891039 41.8999226 -92 46 C-91.01951062 48.06402685 -91.01951062 48.06402685 -89 49 C-85.42599644 49.3898913 -82.90236837 49.37020241 -79.5625 48 C-77.53153659 45.40036684 -77.43579172 43.18718049 -77.62109375 39.94140625 C-77.91939582 37.79730785 -77.91939582 37.79730785 -79.5625 35.5 C-83.93469744 32.80941696 -87.51709197 32.77660088 -91.5 36.0625 Z M-52.4375 35.5625 C-54.60396028 38.94217804 -54.56288002 41.05983987 -54 45 C-52.58333333 47.58333333 -52.58333333 47.58333333 -50 49 C-46.05983987 49.56288002 -43.94217804 49.60396028 -40.5625 47.4375 C-38.39603972 44.05782196 -38.43711998 41.94016013 -39 38 C-40.41666667 35.41666667 -40.41666667 35.41666667 -43 34 C-46.94016013 33.43711998 -49.05782196 33.39603972 -52.4375 35.5625 Z M-13.4375 35.5625 C-15.60396028 38.94217804 -15.56288002 41.05983987 -15 45 C-13.58333333 47.58333333 -13.58333333 47.58333333 -11 49 C-7.5 49.75 -7.5 49.75 -4 49 C-1.32161427 47.06873898 -1.32161427 47.06873898 0 44 C-0.06022514 40.50694211 -0.36341832 38.09633511 -2.125 35.0625 C-6.01738179 32.85681699 -9.74922831 33.19822327 -13.4375 35.5625 Z " fill="#FDFDFD" transform="translate(227,18)"/>
<path d="M0 0 C1.11246094 -0.00515625 2.22492188 -0.0103125 3.37109375 -0.015625 C6.509509 0.24558949 8.73085425 0.91621546 11.5625 2.25 C11.5625 3.57 11.5625 4.89 11.5625 6.25 C12.284375 5.63125 13.00625 5.0125 13.75 4.375 C20.47579431 -0.70671126 27.40339011 -0.46149656 35.5625 0.25 C40.81220024 1.48181943 43.79453219 4.11361338 47 8.375 C49.94745539 13.17559807 50.53927637 17.68794155 50.5625 23.25 C51.5525 22.59 52.5425 21.93 53.5625 21.25 C57.59871805 20.63579291 59.08361041 20.90644877 62.4375 23.3125 C64.5625 26.25 64.5625 26.25 65.125 29.8125 C64.5625 33.25 64.5625 33.25 63.0625 35.6875 C59.55082531 37.88229668 56.59879758 38.07052045 52.5625 37.25 C49.606801 35.20374685 48.75617982 33.96015935 47.8125 30.5 C47.73 29.7575 47.6475 29.015 47.5625 28.25 C47.0675 28.9925 46.5725 29.735 46.0625 30.5 C41.85956824 35.12322494 38.23871628 36.93411873 31.98828125 37.671875 C24.01056541 37.95764393 18.75214174 37.37751387 12.5625 32.25 C12.2325 32.25 11.9025 32.25 11.5625 32.25 C11.5625 33.24 11.5625 34.23 11.5625 35.25 C5.36060013 38.13192373 -2.08889448 38.59272732 -8.6640625 36.5625 C-13.85053008 33.82075503 -17.26914911 29.63980864 -19.8125 24.4375 C-20.93004257 18.7380329 -20.40665881 14.08447917 -17.6875 8.9375 C-12.53456816 2.78260919 -8.01923274 -0.03708316 0 0 Z M-3.125 11.8125 C-6.14938354 15.00036373 -6.51405548 16.88633744 -6.4375 21.25 C-4.50830563 24.79971764 -3.30340284 25.97940536 0.5625 27.1875 C3.86038366 27.4891802 3.86038366 27.4891802 7.5625 25.25 C7.5625 20.96 7.5625 16.67 7.5625 12.25 C3.17647932 10.05698966 1.19425896 9.30130293 -3.125 11.8125 Z M22.0625 13.3125 C20.10609676 17.14378967 20.42358961 19.1499226 21.5625 23.25 C22.54298938 25.31402685 22.54298938 25.31402685 24.5625 26.25 C28.20413694 26.64726948 30.63426044 26.71411978 33.9375 25.0625 C36.05308043 22.70281414 36.48867173 21.42461572 36.5625 18.25 C34.98292918 13.95200702 34.98292918 13.95200702 31.5625 11.25 C27.36994237 10.78416026 25.37917187 10.57624571 22.0625 13.3125 Z M48.5625 24.25 C49.5625 26.25 49.5625 26.25 49.5625 26.25 Z " fill="#FDFDFD" transform="translate(270.4375,40.75)"/>
</svg>
