<?xml version="1.0" encoding="UTF-8"?>
<svg version="1.1" xmlns="http://www.w3.org/2000/svg" width="400" height="94">
<path d="M0 0 C4.29 0 8.58 0 13 0 C13 19.47 13 38.94 13 59 C8.71 59 4.42 59 0 59 C-0.33 58.34 -0.66 57.68 -1 57 C-1.54011719 57.48597656 -2.08023438 57.97195312 -2.63671875 58.47265625 C-6.98959809 61.28583943 -12.00576905 60.59486259 -17 60 C-21.39322604 58.50230931 -24.5747826 55.99447571 -27 52 C-27.44730469 52.40992188 -27.89460937 52.81984375 -28.35546875 53.2421875 C-28.96003906 53.78101563 -29.56460938 54.31984375 -30.1875 54.875 C-31.07501953 55.67550781 -31.07501953 55.67550781 -31.98046875 56.4921875 C-38.46962325 61.33708815 -46.29646782 60.66310957 -54 60 C-59.54286448 58.44866879 -63.23554431 55.23501265 -67 51 C-67.20625 51.5775 -67.4125 52.155 -67.625 52.75 C-70.01964374 56.66850794 -73.72751322 58.57583774 -78 60 C-80.43448818 60.14703064 -82.8737477 60.22105339 -85.3125 60.25 C-86.60800781 60.27578125 -87.90351563 60.3015625 -89.23828125 60.328125 C-94.16236665 59.89860976 -97.50090257 58.49909743 -101 55 C-101.33 56.32 -101.66 57.64 -102 59 C-106.62 59 -111.24 59 -116 59 C-116.13277344 57.31390625 -116.26554687 55.6278125 -116.40234375 53.890625 C-116.58055375 51.6770692 -116.7589488 49.4635283 -116.9375 47.25 C-117.06801758 45.58324219 -117.06801758 45.58324219 -117.20117188 43.8828125 C-117.33168945 42.27792969 -117.33168945 42.27792969 -117.46484375 40.640625 C-117.543396 39.65610352 -117.62194824 38.67158203 -117.70288086 37.65722656 C-117.96828057 34.7493973 -117.96828057 34.7493973 -119 31 C-122.3 40.24 -125.6 49.48 -129 59 C-131.97 59 -134.94 59 -138 59 C-141.3 49.76 -144.6 40.52 -148 31 C-149.5700347 44.99263486 -149.5700347 44.99263486 -151 59 C-155.62 59 -160.24 59 -165 59 C-164.45601829 47.03240246 -163.54584388 35.11972091 -162.5 23.1875 C-162.40143204 22.04755585 -162.40143204 22.04755585 -162.3008728 20.88458252 C-162.11010312 18.68707448 -161.91517038 16.4899782 -161.71875 14.29296875 C-161.54762695 12.36747192 -161.54762695 12.36747192 -161.37304688 10.40307617 C-161 7 -161 7 -160 2 C-155.05 2 -150.1 2 -145 2 C-139.555 16.355 -139.555 16.355 -134 31 C-131.54422413 28.54422413 -130.87176234 26.40453387 -129.65234375 23.15234375 C-129.21212891 21.99025391 -128.77191406 20.82816406 -128.31835938 19.63085938 C-127.86267578 18.41205078 -127.40699219 17.19324219 -126.9375 15.9375 C-126.03227622 13.52907152 -125.1248455 11.12147098 -124.21484375 8.71484375 C-123.81386475 7.64355225 -123.41288574 6.57226074 -122.99975586 5.46850586 C-122 3 -122 3 -121 2 C-118.64686445 1.92728259 -116.29166332 1.91629132 -113.9375 1.9375 C-112.64714844 1.94652344 -111.35679688 1.95554687 -110.02734375 1.96484375 C-109.02832031 1.97644531 -108.02929688 1.98804687 -107 2 C-105.73480542 10.99147995 -104.64121274 19.93865155 -104 29 C-101.76273086 29.20993399 -101.76273086 29.20993399 -99.6875 27.125 C-93.15253326 21.957817 -86.02582928 22.24814466 -78 23 C-73.61675471 24.34410694 -70.02410099 26.51908617 -67 30 C-67 30.66 -67 31.32 -67 32 C-66.39671875 31.51789062 -65.7934375 31.03578125 -65.171875 30.5390625 C-64.37265625 29.90742187 -63.5734375 29.27578125 -62.75 28.625 C-61.96109375 27.99851562 -61.1721875 27.37203125 -60.359375 26.7265625 C-55.62450877 23.26164383 -52.57946298 22.70532773 -46.625 22.6875 C-45.33851563 22.67074219 -44.05203125 22.65398438 -42.7265625 22.63671875 C-36.00529433 23.29193672 -31.88034319 26.70065005 -27 31 C-26.195625 29.8553125 -26.195625 29.8553125 -25.375 28.6875 C-21.9698513 24.83430542 -19.28242482 23.19581124 -14.0859375 22.75 C-8.88932449 22.64884938 -5.73446062 22.63276969 -1 25 C-0.67 16.75 -0.34 8.5 0 0 Z M-91.5 36.0625 C-93.45640324 39.89378967 -93.13891039 41.8999226 -92 46 C-91.01951062 48.06402685 -91.01951062 48.06402685 -89 49 C-85.10495209 49.49573337 -82.90506283 49.58016848 -79.5625 47.4375 C-77.39603972 44.05782196 -77.43711998 41.94016013 -78 38 C-79.41666667 35.41666667 -79.41666667 35.41666667 -82 34 C-86.27465946 33.31300116 -88.12040166 33.27433137 -91.5 36.0625 Z M-52.4375 35.5625 C-54.60396028 38.94217804 -54.56288002 41.05983987 -54 45 C-52.58333333 47.58333333 -52.58333333 47.58333333 -50 49 C-46.05983987 49.56288002 -43.94217804 49.60396028 -40.5625 47.4375 C-38.39603972 44.05782196 -38.43711998 41.94016013 -39 38 C-40.41666667 35.41666667 -40.41666667 35.41666667 -43 34 C-46.94016013 33.43711998 -49.05782196 33.39603972 -52.4375 35.5625 Z M-13.4375 35.5625 C-15.60396028 38.94217804 -15.56288002 41.05983987 -15 45 C-13.58333333 47.58333333 -13.58333333 47.58333333 -11 49 C-7.5 49.75 -7.5 49.75 -4 49 C-1.32161427 47.06873898 -1.32161427 47.06873898 0 44 C-0.06022514 40.50694211 -0.36341832 38.09633511 -2.125 35.0625 C-6.01738179 32.85681699 -9.74922831 33.19822327 -13.4375 35.5625 Z " fill="#000000" transform="translate(226,16)"/>
<path d="M0 0 C1.12148438 -0.01417969 2.24296875 -0.02835938 3.3984375 -0.04296875 C6.57384842 0.18384632 8.76734718 0.83359332 11.625 2.1875 C11.625 3.5075 11.625 4.8275 11.625 6.1875 C12.346875 5.56875 13.06875 4.95 13.8125 4.3125 C20.52554659 -0.75957965 27.47759227 -0.54982197 35.625 0.1875 C40.42466696 1.49921022 44.58625028 4.14421332 47.66015625 8.12890625 C49.84446118 12.78934632 50.12099593 18.1173695 50.625 23.1875 C51.615 22.5275 52.605 21.8675 53.625 21.1875 C57.66121805 20.57329291 59.14611041 20.84394877 62.5 23.25 C64.625 26.1875 64.625 26.1875 65.1875 29.75 C64.625 33.1875 64.625 33.1875 63.125 35.625 C59.61332531 37.81979668 56.66129758 38.00802045 52.625 37.1875 C49.669301 35.14124685 48.81867982 33.89765935 47.875 30.4375 C47.7925 29.695 47.71 28.9525 47.625 28.1875 C46.944375 29.115625 46.26375 30.04375 45.5625 31 C41.5817724 35.6386991 38.04513765 36.99706294 32.05078125 37.46875 C23.63933449 37.66647255 18.6702511 36.88433407 11.625 32.1875 C11.625 33.1775 11.625 34.1675 11.625 35.1875 C5.42310013 38.06942373 -2.02639448 38.53022732 -8.6015625 36.5 C-13.78803008 33.75825503 -17.20664911 29.57730864 -19.75 24.375 C-20.85842249 18.72204528 -20.34826552 14.0619373 -17.6875 8.9375 C-12.47523788 2.73913423 -8.25044969 0.04719937 0 0 Z M-3.0625 11.75 C-6.08688354 14.93786373 -6.45155548 16.82383744 -6.375 21.1875 C-4.44580563 24.73721764 -3.24090284 25.91690536 0.625 27.125 C3.92288366 27.4266802 3.92288366 27.4266802 7.625 25.1875 C7.625 20.8975 7.625 16.6075 7.625 12.1875 C3.23897932 9.99448966 1.25675896 9.23880293 -3.0625 11.75 Z M22.125 13.25 C20.16859676 17.08128967 20.48608961 19.0874226 21.625 23.1875 C22.60548938 25.25152685 22.60548938 25.25152685 24.625 26.1875 C28.52004791 26.68323337 30.71993717 26.76766848 34.0625 24.625 C36.22896028 21.24532196 36.18788002 19.12766013 35.625 15.1875 C34.20833333 12.60416667 34.20833333 12.60416667 31.625 11.1875 C27.35034054 10.50050116 25.50459834 10.46183137 22.125 13.25 Z M48.625 24.1875 C49.625 26.1875 49.625 26.1875 49.625 26.1875 Z " fill="#010101" transform="translate(269.375,38.8125)"/>
</svg>
